<svg class="border shadow-md dark:border-slate-700" viewBox="0 0 510.4 510.4" xmlns="http://www.w3.org/2000/svg" preserveAspectRatio="none" style="width: 510.4px; height: 510.4px;"><rect class="bg" id="bg" x="0" y="0" width="510.4" height="510.4" fill="#ffffff"/><rect x="-20" y="0.638" width="142" height="3.8280000000000003" rx="1.9140000000000001" fill="#f9f9f9" opacity="1"/><rect x="132" y="0.638" width="68" height="3.8280000000000003" rx="1.9140000000000001" fill="#6bb3fa" opacity="1"/><rect x="210" y="0.638" width="51.04" height="3.8280000000000003" rx="1.9140000000000001" fill="#6bb3fa" opacity="1"/><rect x="271.04" y="0.638" width="123" height="3.8280000000000003" rx="1.9140000000000001" fill="#f9f9f9" opacity="1"/><rect x="404.04" y="0.638" width="126" height="3.8280000000000003" rx="1.9140000000000001" fill="#05f5e3" opacity="1"/><rect x="-20" y="5.742" width="140" height="3.8280000000000003" rx="1.9140000000000001" fill="#00fae0" opacity="1"/><rect x="130" y="5.742" width="61" height="3.8280000000000003" rx="1.9140000000000001" fill="#236cbe" opacity="1"/><rect x="201" y="5.742" width="51.04" height="3.8280000000000003" rx="1.9140000000000001" fill="#f9f9f9" opacity="1"/><rect x="262.03999999999996" y="5.742" width="126" height="3.8280000000000003" rx="1.9140000000000001" fill="#05f5e3" opacity="1"/><rect x="398.03999999999996" y="5.742" width="64" height="3.8280000000000003" rx="1.9140000000000001" fill="#6bb3fa" opacity="1"/><rect x="472.03999999999996" y="5.742" width="51.04" height="3.8280000000000003" rx="1.9140000000000001" fill="#00fae0" opacity="1"/><rect x="-20" y="10.846" width="51.04" height="3.8280000000000003" rx="1.9140000000000001" fill="#f9f9f9" opacity="1"/><rect x="41.04" y="10.846" width="51.04" height="3.8280000000000003" rx="1.9140000000000001" fill="#f9f9f9" opacity="1"/><rect x="102.08" y="10.846" width="51.04" height="3.8280000000000003" rx="1.9140000000000001" fill="#f9f9f9" opacity="1"/><rect x="163.12" y="10.846" width="81" height="3.8280000000000003" rx="1.9140000000000001" fill="#00fae0" opacity="1"/><rect x="254.12" y="10.846" width="80" height="3.8280000000000003" rx="1.9140000000000001" fill="#00fae0" opacity="1"/><rect x="344.12" y="10.846" width="125" height="3.8280000000000003" rx="1.9140000000000001" fill="#05f5e3" opacity="1"/><rect x="479.12" y="10.846" width="152" height="3.8280000000000003" rx="1.9140000000000001" fill="#6bb3fa" opacity="1"/><rect x="-20" y="15.950000000000001" width="141" height="3.8280000000000003" rx="1.9140000000000001" fill="#00fae0" opacity="1"/><rect x="131" y="15.950000000000001" width="72" height="3.8280000000000003" rx="1.9140000000000001" fill="#00fae0" opacity="1"/><rect x="213" y="15.950000000000001" width="85" height="3.8280000000000003" rx="1.9140000000000001" fill="#f9f9f9" opacity="1"/><rect x="308" y="15.950000000000001" width="106" height="3.8280000000000003" rx="1.9140000000000001" fill="#00fae0" opacity="1"/><rect x="424" y="15.950000000000001" width="51.04" height="3.8280000000000003" rx="1.9140000000000001" fill="#f9f9f9" opacity="1"/><rect x="485.04" y="15.950000000000001" width="67" height="3.8280000000000003" rx="1.9140000000000001" fill="#6bb3fa" opacity="1"/><rect x="-20" y="21.054000000000002" width="152" height="3.8280000000000003" rx="1.9140000000000001" fill="#236cbe" opacity="1"/><rect x="142" y="21.054000000000002" width="51.04" height="3.8280000000000003" rx="1.9140000000000001" fill="#236cbe" opacity="1"/><rect x="203.04" y="21.054000000000002" width="150" height="3.8280000000000003" rx="1.9140000000000001" fill="#f9f9f9" opacity="1"/><rect x="363.03999999999996" y="21.054000000000002" width="152" height="3.8280000000000003" rx="1.9140000000000001" fill="#f9f9f9" opacity="1"/><rect x="-20" y="26.158" width="81" height="3.8280000000000003" rx="1.9140000000000001" fill="#00fae0" opacity="1"/><rect x="71" y="26.158" width="58" height="3.8280000000000003" rx="1.9140000000000001" fill="#05f5e3" opacity="1"/><rect x="139" y="26.158" width="122" height="3.8280000000000003" rx="1.9140000000000001" fill="#00fae0" opacity="1"/><rect x="271" y="26.158" width="138" height="3.8280000000000003" rx="1.9140000000000001" fill="#236cbe" opacity="1"/><rect x="419" y="26.158" width="135" height="3.8280000000000003" rx="1.9140000000000001" fill="#00fae0" opacity="1"/><rect x="-20" y="31.262000000000004" width="79" height="3.8280000000000003" rx="1.9140000000000001" fill="#00fae0" opacity="1"/><rect x="69" y="31.262000000000004" width="55" height="3.8280000000000003" rx="1.9140000000000001" fill="#05f5e3" opacity="1"/><rect x="134" y="31.262000000000004" width="90" height="3.8280000000000003" rx="1.9140000000000001" fill="#236cbe" opacity="1"/><rect x="234" y="31.262000000000004" width="51.04" height="3.8280000000000003" rx="1.9140000000000001" fill="#6bb3fa" opacity="1"/><rect x="295.04" y="31.262000000000004" width="86" height="3.8280000000000003" rx="1.9140000000000001" fill="#236cbe" opacity="1"/><rect x="391.04" y="31.262000000000004" width="51.04" height="3.8280000000000003" rx="1.9140000000000001" fill="#6bb3fa" opacity="1"/><rect x="452.08000000000004" y="31.262000000000004" width="51.04" height="3.8280000000000003" rx="1.9140000000000001" fill="#6bb3fa" opacity="1"/><rect x="513.1200000000001" y="31.262000000000004" width="51.04" height="3.8280000000000003" rx="1.9140000000000001" fill="#f9f9f9" opacity="1"/><rect x="-20" y="36.366" width="51.04" height="3.8280000000000003" rx="1.9140000000000001" fill="#05f5e3" opacity="1"/><rect x="41.04" y="36.366" width="51.04" height="3.8280000000000003" rx="1.9140000000000001" fill="#f9f9f9" opacity="1"/><rect x="102.08" y="36.366" width="90" height="3.8280000000000003" rx="1.9140000000000001" fill="#6bb3fa" opacity="1"/><rect x="202.07999999999998" y="36.366" width="139" height="3.8280000000000003" rx="1.9140000000000001" fill="#f9f9f9" opacity="1"/><rect x="351.08" y="36.366" width="128" height="3.8280000000000003" rx="1.9140000000000001" fill="#05f5e3" opacity="1"/><rect x="489.08" y="36.366" width="94" height="3.8280000000000003" rx="1.9140000000000001" fill="#236cbe" opacity="1"/><rect x="-20" y="41.47" width="154" height="3.8280000000000003" rx="1.9140000000000001" fill="#05f5e3" opacity="1"/><rect x="144" y="41.47" width="106" height="3.8280000000000003" rx="1.9140000000000001" fill="#236cbe" opacity="1"/><rect x="260" y="41.47" width="140" height="3.8280000000000003" rx="1.9140000000000001" fill="#6bb3fa" opacity="1"/><rect x="410" y="41.47" width="114" height="3.8280000000000003" rx="1.9140000000000001" fill="#236cbe" opacity="1"/><rect x="-20" y="46.574" width="51.04" height="3.8280000000000003" rx="1.9140000000000001" fill="#236cbe" opacity="1"/><rect x="41.04" y="46.574" width="71" height="3.8280000000000003" rx="1.9140000000000001" fill="#f9f9f9" opacity="1"/><rect x="122.03999999999999" y="46.574" width="97" height="3.8280000000000003" rx="1.9140000000000001" fill="#6bb3fa" opacity="1"/><rect x="229.04" y="46.574" width="51.04" height="3.8280000000000003" rx="1.9140000000000001" fill="#6bb3fa" opacity="1"/><rect x="290.08" y="46.574" width="148" height="3.8280000000000003" rx="1.9140000000000001" fill="#6bb3fa" opacity="1"/><rect x="448.08" y="46.574" width="65" height="3.8280000000000003" rx="1.9140000000000001" fill="#236cbe" opacity="1"/><rect x="-20" y="51.678" width="117" height="3.8280000000000003" rx="1.9140000000000001" fill="#05f5e3" opacity="1"/><rect x="107" y="51.678" width="51.04" height="3.8280000000000003" rx="1.9140000000000001" fill="#236cbe" opacity="1"/><rect x="168.04" y="51.678" width="123" height="3.8280000000000003" rx="1.9140000000000001" fill="#6bb3fa" opacity="1"/><rect x="301.03999999999996" y="51.678" width="101" height="3.8280000000000003" rx="1.9140000000000001" fill="#f9f9f9" opacity="1"/><rect x="412.03999999999996" y="51.678" width="64" height="3.8280000000000003" rx="1.9140000000000001" fill="#00fae0" opacity="1"/><rect x="486.03999999999996" y="51.678" width="106" height="3.8280000000000003" rx="1.9140000000000001" fill="#236cbe" opacity="1"/><rect x="-20" y="56.782" width="104" height="3.8280000000000003" rx="1.9140000000000001" fill="#236cbe" opacity="1"/><rect x="94" y="56.782" width="107" height="3.8280000000000003" rx="1.9140000000000001" fill="#236cbe" opacity="1"/><rect x="211" y="56.782" width="145" height="3.8280000000000003" rx="1.9140000000000001" fill="#f9f9f9" opacity="1"/><rect x="366" y="56.782" width="132" height="3.8280000000000003" rx="1.9140000000000001" fill="#00fae0" opacity="1"/><rect x="508" y="56.782" width="144" height="3.8280000000000003" rx="1.9140000000000001" fill="#05f5e3" opacity="1"/><rect x="-20" y="61.886" width="51.04" height="3.8280000000000003" rx="1.9140000000000001" fill="#236cbe" opacity="1"/><rect x="41.04" y="61.886" width="129" height="3.8280000000000003" rx="1.9140000000000001" fill="#05f5e3" opacity="1"/><rect x="180.04" y="61.886" width="165" height="3.8280000000000003" rx="1.9140000000000001" fill="#6bb3fa" opacity="1"/><rect x="355.03999999999996" y="61.886" width="110" height="3.8280000000000003" rx="1.9140000000000001" fill="#6bb3fa" opacity="1"/><rect x="475.03999999999996" y="61.886" width="169" height="3.8280000000000003" rx="1.9140000000000001" fill="#236cbe" opacity="1"/><rect x="-20" y="66.99000000000001" width="165" height="3.8280000000000003" rx="1.9140000000000001" fill="#00fae0" opacity="1"/><rect x="155" y="66.99000000000001" width="152" height="3.8280000000000003" rx="1.9140000000000001" fill="#236cbe" opacity="1"/><rect x="317" y="66.99000000000001" width="51.04" height="3.8280000000000003" rx="1.9140000000000001" fill="#f9f9f9" opacity="1"/><rect x="378.04" y="66.99000000000001" width="51.04" height="3.8280000000000003" rx="1.9140000000000001" fill="#6bb3fa" opacity="1"/><rect x="439.08000000000004" y="66.99000000000001" width="105" height="3.8280000000000003" rx="1.9140000000000001" fill="#05f5e3" opacity="1"/><rect x="-20" y="72.09400000000001" width="131" height="3.8280000000000003" rx="1.9140000000000001" fill="#236cbe" opacity="1"/><rect x="121" y="72.09400000000001" width="80" height="3.8280000000000003" rx="1.9140000000000001" fill="#00fae0" opacity="1"/><rect x="211" y="72.09400000000001" width="55" height="3.8280000000000003" rx="1.9140000000000001" fill="#236cbe" opacity="1"/><rect x="276" y="72.09400000000001" width="155" height="3.8280000000000003" rx="1.9140000000000001" fill="#05f5e3" opacity="1"/><rect x="441" y="72.09400000000001" width="51.04" height="3.8280000000000003" rx="1.9140000000000001" fill="#236cbe" opacity="1"/><rect x="502.04" y="72.09400000000001" width="51.04" height="3.8280000000000003" rx="1.9140000000000001" fill="#00fae0" opacity="1"/><rect x="-20" y="77.19800000000001" width="129" height="3.8280000000000003" rx="1.9140000000000001" fill="#00fae0" opacity="1"/><rect x="119" y="77.19800000000001" width="91" height="3.8280000000000003" rx="1.9140000000000001" fill="#236cbe" opacity="1"/><rect x="220" y="77.19800000000001" width="91" height="3.8280000000000003" rx="1.9140000000000001" fill="#f9f9f9" opacity="1"/><rect x="321" y="77.19800000000001" width="51.04" height="3.8280000000000003" rx="1.9140000000000001" fill="#00fae0" opacity="1"/><rect x="382.04" y="77.19800000000001" width="51.04" height="3.8280000000000003" rx="1.9140000000000001" fill="#05f5e3" opacity="1"/><rect x="443.08000000000004" y="77.19800000000001" width="51.04" height="3.8280000000000003" rx="1.9140000000000001" fill="#f9f9f9" opacity="1"/><rect x="504.12000000000006" y="77.19800000000001" width="66" height="3.8280000000000003" rx="1.9140000000000001" fill="#f9f9f9" opacity="1"/><rect x="-20" y="82.302" width="51.04" height="3.8280000000000003" rx="1.9140000000000001" fill="#236cbe" opacity="1"/><rect x="41.04" y="82.302" width="78" height="3.8280000000000003" rx="1.9140000000000001" fill="#05f5e3" opacity="1"/><rect x="129.04" y="82.302" width="68" height="3.8280000000000003" rx="1.9140000000000001" fill="#05f5e3" opacity="1"/><rect x="207.04" y="82.302" width="168" height="3.8280000000000003" rx="1.9140000000000001" fill="#05f5e3" opacity="1"/><rect x="385.03999999999996" y="82.302" width="51.04" height="3.8280000000000003" rx="1.9140000000000001" fill="#f9f9f9" opacity="1"/><rect x="446.08" y="82.302" width="78" height="3.8280000000000003" rx="1.9140000000000001" fill="#236cbe" opacity="1"/><rect x="-20" y="87.406" width="122" height="3.8280000000000003" rx="1.9140000000000001" fill="#6bb3fa" opacity="1"/><rect x="112" y="87.406" width="51.04" height="3.8280000000000003" rx="1.9140000000000001" fill="#236cbe" opacity="1"/><rect x="173.04" y="87.406" width="85" height="3.8280000000000003" rx="1.9140000000000001" fill="#236cbe" opacity="1"/><rect x="268.03999999999996" y="87.406" width="165" height="3.8280000000000003" rx="1.9140000000000001" fill="#6bb3fa" opacity="1"/><rect x="443.03999999999996" y="87.406" width="157" height="3.8280000000000003" rx="1.9140000000000001" fill="#236cbe" opacity="1"/><rect x="-20" y="92.51" width="51.04" height="3.8280000000000003" rx="1.9140000000000001" fill="#236cbe" opacity="1"/><rect x="41.04" y="92.51" width="51.04" height="3.8280000000000003" rx="1.9140000000000001" fill="#00fae0" opacity="1"/><rect x="102.08" y="92.51" width="51.04" height="3.8280000000000003" rx="1.9140000000000001" fill="#236cbe" opacity="1"/><rect x="163.12" y="92.51" width="127" height="3.8280000000000003" rx="1.9140000000000001" fill="#236cbe" opacity="1"/><rect x="300.12" y="92.51" width="85" height="3.8280000000000003" rx="1.9140000000000001" fill="#05f5e3" opacity="1"/><rect x="395.12" y="92.51" width="69" height="3.8280000000000003" rx="1.9140000000000001" fill="#05f5e3" opacity="1"/><rect x="474.12" y="92.51" width="105" height="3.8280000000000003" rx="1.9140000000000001" fill="#00fae0" opacity="1"/><rect x="-20" y="97.614" width="68" height="3.8280000000000003" rx="1.9140000000000001" fill="#00fae0" opacity="1"/><rect x="58" y="97.614" width="157" height="3.8280000000000003" rx="1.9140000000000001" fill="#6bb3fa" opacity="1"/><rect x="225" y="97.614" width="51.04" height="3.8280000000000003" rx="1.9140000000000001" fill="#f9f9f9" opacity="1"/><rect x="286.04" y="97.614" width="104" height="3.8280000000000003" rx="1.9140000000000001" fill="#05f5e3" opacity="1"/><rect x="400.04" y="97.614" width="163" height="3.8280000000000003" rx="1.9140000000000001" fill="#05f5e3" opacity="1"/><rect x="-20" y="102.718" width="65" height="3.8280000000000003" rx="1.9140000000000001" fill="#6bb3fa" opacity="1"/><rect x="55" y="102.718" width="51.04" height="3.8280000000000003" rx="1.9140000000000001" fill="#00fae0" opacity="1"/><rect x="116.03999999999999" y="102.718" width="133" height="3.8280000000000003" rx="1.9140000000000001" fill="#05f5e3" opacity="1"/><rect x="259.03999999999996" y="102.718" width="102" height="3.8280000000000003" rx="1.9140000000000001" fill="#00fae0" opacity="1"/><rect x="371.03999999999996" y="102.718" width="51.04" height="3.8280000000000003" rx="1.9140000000000001" fill="#f9f9f9" opacity="1"/><rect x="432.08" y="102.718" width="55" height="3.8280000000000003" rx="1.9140000000000001" fill="#6bb3fa" opacity="1"/><rect x="497.08" y="102.718" width="75" height="3.8280000000000003" rx="1.9140000000000001" fill="#00fae0" opacity="1"/><rect x="-20" y="107.822" width="54" height="3.8280000000000003" rx="1.9140000000000001" fill="#f9f9f9" opacity="1"/><rect x="44" y="107.822" width="163" height="3.8280000000000003" rx="1.9140000000000001" fill="#f9f9f9" opacity="1"/><rect x="217" y="107.822" width="51.04" height="3.8280000000000003" rx="1.9140000000000001" fill="#05f5e3" opacity="1"/><rect x="278.04" y="107.822" width="66" height="3.8280000000000003" rx="1.9140000000000001" fill="#236cbe" opacity="1"/><rect x="354.04" y="107.822" width="51.04" height="3.8280000000000003" rx="1.9140000000000001" fill="#00fae0" opacity="1"/><rect x="415.08000000000004" y="107.822" width="146" height="3.8280000000000003" rx="1.9140000000000001" fill="#f9f9f9" opacity="1"/><rect x="-20" y="112.926" width="51.04" height="3.8280000000000003" rx="1.9140000000000001" fill="#f9f9f9" opacity="1"/><rect x="41.04" y="112.926" width="126" height="3.8280000000000003" rx="1.9140000000000001" fill="#00fae0" opacity="1"/><rect x="177.04" y="112.926" width="51.04" height="3.8280000000000003" rx="1.9140000000000001" fill="#f9f9f9" opacity="1"/><rect x="238.07999999999998" y="112.926" width="51.04" height="3.8280000000000003" rx="1.9140000000000001" fill="#6bb3fa" opacity="1"/><rect x="299.12" y="112.926" width="83" height="3.8280000000000003" rx="1.9140000000000001" fill="#00fae0" opacity="1"/><rect x="392.12" y="112.926" width="119" height="3.8280000000000003" rx="1.9140000000000001" fill="#236cbe" opacity="1"/><rect x="-20" y="118.03" width="58" height="3.8280000000000003" rx="1.9140000000000001" fill="#05f5e3" opacity="1"/><rect x="48" y="118.03" width="88" height="3.8280000000000003" rx="1.9140000000000001" fill="#05f5e3" opacity="1"/><rect x="146" y="118.03" width="70" height="3.8280000000000003" rx="1.9140000000000001" fill="#6bb3fa" opacity="1"/><rect x="226" y="118.03" width="51.04" height="3.8280000000000003" rx="1.9140000000000001" fill="#00fae0" opacity="1"/><rect x="287.04" y="118.03" width="144" height="3.8280000000000003" rx="1.9140000000000001" fill="#236cbe" opacity="1"/><rect x="441.04" y="118.03" width="81" height="3.8280000000000003" rx="1.9140000000000001" fill="#f9f9f9" opacity="1"/><rect x="-20" y="123.13400000000001" width="96" height="3.8280000000000003" rx="1.9140000000000001" fill="#6bb3fa" opacity="1"/><rect x="86" y="123.13400000000001" width="51.04" height="3.8280000000000003" rx="1.9140000000000001" fill="#00fae0" opacity="1"/><rect x="147.04" y="123.13400000000001" width="51.04" height="3.8280000000000003" rx="1.9140000000000001" fill="#05f5e3" opacity="1"/><rect x="208.07999999999998" y="123.13400000000001" width="58" height="3.8280000000000003" rx="1.9140000000000001" fill="#05f5e3" opacity="1"/><rect x="276.08" y="123.13400000000001" width="114" height="3.8280000000000003" rx="1.9140000000000001" fill="#236cbe" opacity="1"/><rect x="400.08" y="123.13400000000001" width="109" height="3.8280000000000003" rx="1.9140000000000001" fill="#00fae0" opacity="1"/><rect x="519.0799999999999" y="123.13400000000001" width="51.04" height="3.8280000000000003" rx="1.9140000000000001" fill="#00fae0" opacity="1"/><rect x="-20" y="128.238" width="51.04" height="3.8280000000000003" rx="1.9140000000000001" fill="#f9f9f9" opacity="1"/><rect x="41.04" y="128.238" width="51.04" height="3.8280000000000003" rx="1.9140000000000001" fill="#05f5e3" opacity="1"/><rect x="102.08" y="128.238" width="51.04" height="3.8280000000000003" rx="1.9140000000000001" fill="#05f5e3" opacity="1"/><rect x="163.12" y="128.238" width="51.04" height="3.8280000000000003" rx="1.9140000000000001" fill="#00fae0" opacity="1"/><rect x="224.16" y="128.238" width="51.04" height="3.8280000000000003" rx="1.9140000000000001" fill="#6bb3fa" opacity="1"/><rect x="285.2" y="128.238" width="129" height="3.8280000000000003" rx="1.9140000000000001" fill="#f9f9f9" opacity="1"/><rect x="424.2" y="128.238" width="128" height="3.8280000000000003" rx="1.9140000000000001" fill="#05f5e3" opacity="1"/><rect x="-20" y="133.342" width="154" height="3.8280000000000003" rx="1.9140000000000001" fill="#236cbe" opacity="1"/><rect x="144" y="133.342" width="90" height="3.8280000000000003" rx="1.9140000000000001" fill="#236cbe" opacity="1"/><rect x="244" y="133.342" width="51.04" height="3.8280000000000003" rx="1.9140000000000001" fill="#236cbe" opacity="1"/><rect x="305.04" y="133.342" width="51.04" height="3.8280000000000003" rx="1.9140000000000001" fill="#05f5e3" opacity="1"/><rect x="366.08000000000004" y="133.342" width="93" height="3.8280000000000003" rx="1.9140000000000001" fill="#6bb3fa" opacity="1"/><rect x="469.08000000000004" y="133.342" width="51.04" height="3.8280000000000003" rx="1.9140000000000001" fill="#05f5e3" opacity="1"/><rect x="-20" y="138.446" width="120" height="3.8280000000000003" rx="1.9140000000000001" fill="#00fae0" opacity="1"/><rect x="110" y="138.446" width="126" height="3.8280000000000003" rx="1.9140000000000001" fill="#f9f9f9" opacity="1"/><rect x="246" y="138.446" width="67" height="3.8280000000000003" rx="1.9140000000000001" fill="#00fae0" opacity="1"/><rect x="323" y="138.446" width="125" height="3.8280000000000003" rx="1.9140000000000001" fill="#00fae0" opacity="1"/><rect x="458" y="138.446" width="166" height="3.8280000000000003" rx="1.9140000000000001" fill="#05f5e3" opacity="1"/><rect x="-20" y="143.55" width="51.04" height="3.8280000000000003" rx="1.9140000000000001" fill="#00fae0" opacity="1"/><rect x="41.04" y="143.55" width="51.04" height="3.8280000000000003" rx="1.9140000000000001" fill="#236cbe" opacity="1"/><rect x="102.08" y="143.55" width="79" height="3.8280000000000003" rx="1.9140000000000001" fill="#00fae0" opacity="1"/><rect x="191.07999999999998" y="143.55" width="142" height="3.8280000000000003" rx="1.9140000000000001" fill="#f9f9f9" opacity="1"/><rect x="343.08" y="143.55" width="153" height="3.8280000000000003" rx="1.9140000000000001" fill="#6bb3fa" opacity="1"/><rect x="506.08" y="143.55" width="119" height="3.8280000000000003" rx="1.9140000000000001" fill="#05f5e3" opacity="1"/><rect x="-20" y="148.654" width="125" height="3.8280000000000003" rx="1.9140000000000001" fill="#f9f9f9" opacity="1"/><rect x="115" y="148.654" width="59" height="3.8280000000000003" rx="1.9140000000000001" fill="#f9f9f9" opacity="1"/><rect x="184" y="148.654" width="51.04" height="3.8280000000000003" rx="1.9140000000000001" fill="#05f5e3" opacity="1"/><rect x="245.04" y="148.654" width="51.04" height="3.8280000000000003" rx="1.9140000000000001" fill="#00fae0" opacity="1"/><rect x="306.08" y="148.654" width="169" height="3.8280000000000003" rx="1.9140000000000001" fill="#00fae0" opacity="1"/><rect x="485.08" y="148.654" width="138" height="3.8280000000000003" rx="1.9140000000000001" fill="#236cbe" opacity="1"/><rect x="-20" y="153.758" width="158" height="3.8280000000000003" rx="1.9140000000000001" fill="#6bb3fa" opacity="1"/><rect x="148" y="153.758" width="55" height="3.8280000000000003" rx="1.9140000000000001" fill="#236cbe" opacity="1"/><rect x="213" y="153.758" width="143" height="3.8280000000000003" rx="1.9140000000000001" fill="#6bb3fa" opacity="1"/><rect x="366" y="153.758" width="56" height="3.8280000000000003" rx="1.9140000000000001" fill="#f9f9f9" opacity="1"/><rect x="432" y="153.758" width="51.04" height="3.8280000000000003" rx="1.9140000000000001" fill="#236cbe" opacity="1"/><rect x="493.04" y="153.758" width="55" height="3.8280000000000003" rx="1.9140000000000001" fill="#05f5e3" opacity="1"/><rect x="-20" y="158.862" width="167" height="3.8280000000000003" rx="1.9140000000000001" fill="#6bb3fa" opacity="1"/><rect x="157" y="158.862" width="145" height="3.8280000000000003" rx="1.9140000000000001" fill="#00fae0" opacity="1"/><rect x="312" y="158.862" width="78" height="3.8280000000000003" rx="1.9140000000000001" fill="#6bb3fa" opacity="1"/><rect x="400" y="158.862" width="113" height="3.8280000000000003" rx="1.9140000000000001" fill="#6bb3fa" opacity="1"/><rect x="-20" y="163.966" width="146" height="3.8280000000000003" rx="1.9140000000000001" fill="#6bb3fa" opacity="1"/><rect x="136" y="163.966" width="72" height="3.8280000000000003" rx="1.9140000000000001" fill="#f9f9f9" opacity="1"/><rect x="218" y="163.966" width="51.04" height="3.8280000000000003" rx="1.9140000000000001" fill="#236cbe" opacity="1"/><rect x="279.04" y="163.966" width="137" height="3.8280000000000003" rx="1.9140000000000001" fill="#00fae0" opacity="1"/><rect x="426.04" y="163.966" width="51.04" height="3.8280000000000003" rx="1.9140000000000001" fill="#f9f9f9" opacity="1"/><rect x="487.08000000000004" y="163.966" width="68" height="3.8280000000000003" rx="1.9140000000000001" fill="#05f5e3" opacity="1"/><rect x="-20" y="169.07000000000002" width="143" height="3.8280000000000003" rx="1.9140000000000001" fill="#6bb3fa" opacity="1"/><rect x="133" y="169.07000000000002" width="103" height="3.8280000000000003" rx="1.9140000000000001" fill="#00fae0" opacity="1"/><rect x="246" y="169.07000000000002" width="159" height="3.8280000000000003" rx="1.9140000000000001" fill="#00fae0" opacity="1"/><rect x="415" y="169.07000000000002" width="51.04" height="3.8280000000000003" rx="1.9140000000000001" fill="#6bb3fa" opacity="1"/><rect x="476.04" y="169.07000000000002" width="145" height="3.8280000000000003" rx="1.9140000000000001" fill="#6bb3fa" opacity="1"/><rect x="-20" y="174.174" width="121" height="3.8280000000000003" rx="1.9140000000000001" fill="#f9f9f9" opacity="1"/><rect x="111" y="174.174" width="51.04" height="3.8280000000000003" rx="1.9140000000000001" fill="#05f5e3" opacity="1"/><rect x="172.04" y="174.174" width="94" height="3.8280000000000003" rx="1.9140000000000001" fill="#f9f9f9" opacity="1"/><rect x="276.03999999999996" y="174.174" width="82" height="3.8280000000000003" rx="1.9140000000000001" fill="#05f5e3" opacity="1"/><rect x="368.03999999999996" y="174.174" width="88" height="3.8280000000000003" rx="1.9140000000000001" fill="#f9f9f9" opacity="1"/><rect x="466.03999999999996" y="174.174" width="60" height="3.8280000000000003" rx="1.9140000000000001" fill="#00fae0" opacity="1"/><rect x="-20" y="179.27800000000002" width="162" height="3.8280000000000003" rx="1.9140000000000001" fill="#f9f9f9" opacity="1"/><rect x="152" y="179.27800000000002" width="135" height="3.8280000000000003" rx="1.9140000000000001" fill="#f9f9f9" opacity="1"/><rect x="297" y="179.27800000000002" width="93" height="3.8280000000000003" rx="1.9140000000000001" fill="#6bb3fa" opacity="1"/><rect x="400" y="179.27800000000002" width="51.04" height="3.8280000000000003" rx="1.9140000000000001" fill="#236cbe" opacity="1"/><rect x="461.04" y="179.27800000000002" width="51.04" height="3.8280000000000003" rx="1.9140000000000001" fill="#236cbe" opacity="1"/><rect x="-20" y="184.382" width="51.04" height="3.8280000000000003" rx="1.9140000000000001" fill="#236cbe" opacity="1"/><rect x="41.04" y="184.382" width="143" height="3.8280000000000003" rx="1.9140000000000001" fill="#236cbe" opacity="1"/><rect x="194.04" y="184.382" width="130" height="3.8280000000000003" rx="1.9140000000000001" fill="#6bb3fa" opacity="1"/><rect x="334.03999999999996" y="184.382" width="117" height="3.8280000000000003" rx="1.9140000000000001" fill="#00fae0" opacity="1"/><rect x="461.03999999999996" y="184.382" width="63" height="3.8280000000000003" rx="1.9140000000000001" fill="#236cbe" opacity="1"/><rect x="-20" y="189.48600000000002" width="128" height="3.8280000000000003" rx="1.9140000000000001" fill="#f9f9f9" opacity="1"/><rect x="118" y="189.48600000000002" width="138" height="3.8280000000000003" rx="1.9140000000000001" fill="#6bb3fa" opacity="1"/><rect x="266" y="189.48600000000002" width="69" height="3.8280000000000003" rx="1.9140000000000001" fill="#05f5e3" opacity="1"/><rect x="345" y="189.48600000000002" width="51.04" height="3.8280000000000003" rx="1.9140000000000001" fill="#05f5e3" opacity="1"/><rect x="406.04" y="189.48600000000002" width="80" height="3.8280000000000003" rx="1.9140000000000001" fill="#236cbe" opacity="1"/><rect x="496.04" y="189.48600000000002" width="87" height="3.8280000000000003" rx="1.9140000000000001" fill="#6bb3fa" opacity="1"/><rect x="-20" y="194.59" width="51.04" height="3.8280000000000003" rx="1.9140000000000001" fill="#05f5e3" opacity="1"/><rect x="41.04" y="194.59" width="157" height="3.8280000000000003" rx="1.9140000000000001" fill="#f9f9f9" opacity="1"/><rect x="208.04" y="194.59" width="51.04" height="3.8280000000000003" rx="1.9140000000000001" fill="#6bb3fa" opacity="1"/><rect x="269.08" y="194.59" width="62" height="3.8280000000000003" rx="1.9140000000000001" fill="#236cbe" opacity="1"/><rect x="341.08" y="194.59" width="51.04" height="3.8280000000000003" rx="1.9140000000000001" fill="#00fae0" opacity="1"/><rect x="402.12" y="194.59" width="51.04" height="3.8280000000000003" rx="1.9140000000000001" fill="#f9f9f9" opacity="1"/><rect x="463.16" y="194.59" width="87" height="3.8280000000000003" rx="1.9140000000000001" fill="#6bb3fa" opacity="1"/><rect x="-20" y="199.69400000000002" width="51.04" height="3.8280000000000003" rx="1.9140000000000001" fill="#f9f9f9" opacity="1"/><rect x="41.04" y="199.69400000000002" width="58" height="3.8280000000000003" rx="1.9140000000000001" fill="#05f5e3" opacity="1"/><rect x="109.03999999999999" y="199.69400000000002" width="160" height="3.8280000000000003" rx="1.9140000000000001" fill="#00fae0" opacity="1"/><rect x="279.03999999999996" y="199.69400000000002" width="95" height="3.8280000000000003" rx="1.9140000000000001" fill="#00fae0" opacity="1"/><rect x="384.03999999999996" y="199.69400000000002" width="59" height="3.8280000000000003" rx="1.9140000000000001" fill="#236cbe" opacity="1"/><rect x="453.03999999999996" y="199.69400000000002" width="80" height="3.8280000000000003" rx="1.9140000000000001" fill="#05f5e3" opacity="1"/><rect x="-20" y="204.798" width="51.04" height="3.8280000000000003" rx="1.9140000000000001" fill="#236cbe" opacity="1"/><rect x="41.04" y="204.798" width="111" height="3.8280000000000003" rx="1.9140000000000001" fill="#236cbe" opacity="1"/><rect x="162.04" y="204.798" width="169" height="3.8280000000000003" rx="1.9140000000000001" fill="#6bb3fa" opacity="1"/><rect x="341.03999999999996" y="204.798" width="57" height="3.8280000000000003" rx="1.9140000000000001" fill="#236cbe" opacity="1"/><rect x="408.03999999999996" y="204.798" width="51.04" height="3.8280000000000003" rx="1.9140000000000001" fill="#00fae0" opacity="1"/><rect x="469.08" y="204.798" width="51.04" height="3.8280000000000003" rx="1.9140000000000001" fill="#05f5e3" opacity="1"/><rect x="-20" y="209.90200000000002" width="51.04" height="3.8280000000000003" rx="1.9140000000000001" fill="#05f5e3" opacity="1"/><rect x="41.04" y="209.90200000000002" width="51.04" height="3.8280000000000003" rx="1.9140000000000001" fill="#f9f9f9" opacity="1"/><rect x="102.08" y="209.90200000000002" width="51.04" height="3.8280000000000003" rx="1.9140000000000001" fill="#f9f9f9" opacity="1"/><rect x="163.12" y="209.90200000000002" width="51.04" height="3.8280000000000003" rx="1.9140000000000001" fill="#05f5e3" opacity="1"/><rect x="224.16" y="209.90200000000002" width="51.04" height="3.8280000000000003" rx="1.9140000000000001" fill="#f9f9f9" opacity="1"/><rect x="285.2" y="209.90200000000002" width="85" height="3.8280000000000003" rx="1.9140000000000001" fill="#236cbe" opacity="1"/><rect x="380.2" y="209.90200000000002" width="51.04" height="3.8280000000000003" rx="1.9140000000000001" fill="#6bb3fa" opacity="1"/><rect x="441.24" y="209.90200000000002" width="75" height="3.8280000000000003" rx="1.9140000000000001" fill="#00fae0" opacity="1"/><rect x="-20" y="215.006" width="163" height="3.8280000000000003" rx="1.9140000000000001" fill="#236cbe" opacity="1"/><rect x="153" y="215.006" width="51.04" height="3.8280000000000003" rx="1.9140000000000001" fill="#6bb3fa" opacity="1"/><rect x="214.04" y="215.006" width="142" height="3.8280000000000003" rx="1.9140000000000001" fill="#00fae0" opacity="1"/><rect x="366.03999999999996" y="215.006" width="51.04" height="3.8280000000000003" rx="1.9140000000000001" fill="#236cbe" opacity="1"/><rect x="427.08" y="215.006" width="51.04" height="3.8280000000000003" rx="1.9140000000000001" fill="#05f5e3" opacity="1"/><rect x="488.12" y="215.006" width="158" height="3.8280000000000003" rx="1.9140000000000001" fill="#05f5e3" opacity="1"/><rect x="-20" y="220.11" width="60" height="3.8280000000000003" rx="1.9140000000000001" fill="#236cbe" opacity="1"/><rect x="50" y="220.11" width="128" height="3.8280000000000003" rx="1.9140000000000001" fill="#6bb3fa" opacity="1"/><rect x="188" y="220.11" width="51.04" height="3.8280000000000003" rx="1.9140000000000001" fill="#05f5e3" opacity="1"/><rect x="249.04" y="220.11" width="53" height="3.8280000000000003" rx="1.9140000000000001" fill="#6bb3fa" opacity="1"/><rect x="312.03999999999996" y="220.11" width="162" height="3.8280000000000003" rx="1.9140000000000001" fill="#f9f9f9" opacity="1"/><rect x="484.03999999999996" y="220.11" width="94" height="3.8280000000000003" rx="1.9140000000000001" fill="#236cbe" opacity="1"/><rect x="-20" y="225.214" width="91" height="3.8280000000000003" rx="1.9140000000000001" fill="#236cbe" opacity="1"/><rect x="81" y="225.214" width="145" height="3.8280000000000003" rx="1.9140000000000001" fill="#00fae0" opacity="1"/><rect x="236" y="225.214" width="51.04" height="3.8280000000000003" rx="1.9140000000000001" fill="#f9f9f9" opacity="1"/><rect x="297.04" y="225.214" width="51.04" height="3.8280000000000003" rx="1.9140000000000001" fill="#f9f9f9" opacity="1"/><rect x="358.08000000000004" y="225.214" width="127" height="3.8280000000000003" rx="1.9140000000000001" fill="#05f5e3" opacity="1"/><rect x="495.08000000000004" y="225.214" width="51.04" height="3.8280000000000003" rx="1.9140000000000001" fill="#236cbe" opacity="1"/><rect x="-20" y="230.318" width="89" height="3.8280000000000003" rx="1.9140000000000001" fill="#6bb3fa" opacity="1"/><rect x="79" y="230.318" width="159" height="3.8280000000000003" rx="1.9140000000000001" fill="#6bb3fa" opacity="1"/><rect x="248" y="230.318" width="51.04" height="3.8280000000000003" rx="1.9140000000000001" fill="#6bb3fa" opacity="1"/><rect x="309.04" y="230.318" width="117" height="3.8280000000000003" rx="1.9140000000000001" fill="#236cbe" opacity="1"/><rect x="436.04" y="230.318" width="65" height="3.8280000000000003" rx="1.9140000000000001" fill="#6bb3fa" opacity="1"/><rect x="511.04" y="230.318" width="69" height="3.8280000000000003" rx="1.9140000000000001" fill="#236cbe" opacity="1"/><rect x="-20" y="235.422" width="92" height="3.8280000000000003" rx="1.9140000000000001" fill="#6bb3fa" opacity="1"/><rect x="82" y="235.422" width="51.04" height="3.8280000000000003" rx="1.9140000000000001" fill="#05f5e3" opacity="1"/><rect x="143.04" y="235.422" width="78" height="3.8280000000000003" rx="1.9140000000000001" fill="#00fae0" opacity="1"/><rect x="231.04" y="235.422" width="85" height="3.8280000000000003" rx="1.9140000000000001" fill="#f9f9f9" opacity="1"/><rect x="326.03999999999996" y="235.422" width="76" height="3.8280000000000003" rx="1.9140000000000001" fill="#05f5e3" opacity="1"/><rect x="412.03999999999996" y="235.422" width="168" height="3.8280000000000003" rx="1.9140000000000001" fill="#05f5e3" opacity="1"/><rect x="-20" y="240.526" width="132" height="3.8280000000000003" rx="1.9140000000000001" fill="#00fae0" opacity="1"/><rect x="122" y="240.526" width="93" height="3.8280000000000003" rx="1.9140000000000001" fill="#05f5e3" opacity="1"/><rect x="225" y="240.526" width="82" height="3.8280000000000003" rx="1.9140000000000001" fill="#00fae0" opacity="1"/><rect x="317" y="240.526" width="168" height="3.8280000000000003" rx="1.9140000000000001" fill="#f9f9f9" opacity="1"/><rect x="495" y="240.526" width="51.04" height="3.8280000000000003" rx="1.9140000000000001" fill="#236cbe" opacity="1"/><rect x="-20" y="245.63000000000002" width="51.04" height="3.8280000000000003" rx="1.9140000000000001" fill="#236cbe" opacity="1"/><rect x="41.04" y="245.63000000000002" width="70" height="3.8280000000000003" rx="1.9140000000000001" fill="#236cbe" opacity="1"/><rect x="121.03999999999999" y="245.63000000000002" width="63" height="3.8280000000000003" rx="1.9140000000000001" fill="#6bb3fa" opacity="1"/><rect x="194.04" y="245.63000000000002" width="80" height="3.8280000000000003" rx="1.9140000000000001" fill="#236cbe" opacity="1"/><rect x="284.03999999999996" y="245.63000000000002" width="128" height="3.8280000000000003" rx="1.9140000000000001" fill="#6bb3fa" opacity="1"/><rect x="422.03999999999996" y="245.63000000000002" width="51.04" height="3.8280000000000003" rx="1.9140000000000001" fill="#236cbe" opacity="1"/><rect x="483.08" y="245.63000000000002" width="51.04" height="3.8280000000000003" rx="1.9140000000000001" fill="#236cbe" opacity="1"/><rect x="-20" y="250.734" width="51.04" height="3.8280000000000003" rx="1.9140000000000001" fill="#05f5e3" opacity="1"/><rect x="41.04" y="250.734" width="167" height="3.8280000000000003" rx="1.9140000000000001" fill="#236cbe" opacity="1"/><rect x="218.04" y="250.734" width="51.04" height="3.8280000000000003" rx="1.9140000000000001" fill="#00fae0" opacity="1"/><rect x="279.08" y="250.734" width="115" height="3.8280000000000003" rx="1.9140000000000001" fill="#f9f9f9" opacity="1"/><rect x="404.08" y="250.734" width="97" height="3.8280000000000003" rx="1.9140000000000001" fill="#05f5e3" opacity="1"/><rect x="511.08" y="250.734" width="51.04" height="3.8280000000000003" rx="1.9140000000000001" fill="#f9f9f9" opacity="1"/><rect x="-20" y="255.83800000000002" width="51.04" height="3.8280000000000003" rx="1.9140000000000001" fill="#00fae0" opacity="1"/><rect x="41.04" y="255.83800000000002" width="157" height="3.8280000000000003" rx="1.9140000000000001" fill="#6bb3fa" opacity="1"/><rect x="208.04" y="255.83800000000002" width="51.04" height="3.8280000000000003" rx="1.9140000000000001" fill="#00fae0" opacity="1"/><rect x="269.08" y="255.83800000000002" width="118" height="3.8280000000000003" rx="1.9140000000000001" fill="#00fae0" opacity="1"/><rect x="397.08" y="255.83800000000002" width="56" height="3.8280000000000003" rx="1.9140000000000001" fill="#05f5e3" opacity="1"/><rect x="463.08" y="255.83800000000002" width="51.04" height="3.8280000000000003" rx="1.9140000000000001" fill="#6bb3fa" opacity="1"/><rect x="-20" y="260.942" width="51.04" height="3.8280000000000003" rx="1.9140000000000001" fill="#05f5e3" opacity="1"/><rect x="41.04" y="260.942" width="51.04" height="3.8280000000000003" rx="1.9140000000000001" fill="#236cbe" opacity="1"/><rect x="102.08" y="260.942" width="99" height="3.8280000000000003" rx="1.9140000000000001" fill="#236cbe" opacity="1"/><rect x="211.07999999999998" y="260.942" width="104" height="3.8280000000000003" rx="1.9140000000000001" fill="#6bb3fa" opacity="1"/><rect x="325.08" y="260.942" width="107" height="3.8280000000000003" rx="1.9140000000000001" fill="#6bb3fa" opacity="1"/><rect x="442.08" y="260.942" width="76" height="3.8280000000000003" rx="1.9140000000000001" fill="#05f5e3" opacity="1"/><rect x="-20" y="266.046" width="91" height="3.8280000000000003" rx="1.9140000000000001" fill="#6bb3fa" opacity="1"/><rect x="81" y="266.046" width="68" height="3.8280000000000003" rx="1.9140000000000001" fill="#00fae0" opacity="1"/><rect x="159" y="266.046" width="57" height="3.8280000000000003" rx="1.9140000000000001" fill="#00fae0" opacity="1"/><rect x="226" y="266.046" width="106" height="3.8280000000000003" rx="1.9140000000000001" fill="#f9f9f9" opacity="1"/><rect x="342" y="266.046" width="120" height="3.8280000000000003" rx="1.9140000000000001" fill="#05f5e3" opacity="1"/><rect x="472" y="266.046" width="133" height="3.8280000000000003" rx="1.9140000000000001" fill="#6bb3fa" opacity="1"/><rect x="-20" y="271.15" width="51.04" height="3.8280000000000003" rx="1.9140000000000001" fill="#05f5e3" opacity="1"/><rect x="41.04" y="271.15" width="125" height="3.8280000000000003" rx="1.9140000000000001" fill="#00fae0" opacity="1"/><rect x="176.04" y="271.15" width="142" height="3.8280000000000003" rx="1.9140000000000001" fill="#00fae0" opacity="1"/><rect x="328.03999999999996" y="271.15" width="166" height="3.8280000000000003" rx="1.9140000000000001" fill="#6bb3fa" opacity="1"/><rect x="504.03999999999996" y="271.15" width="51.04" height="3.8280000000000003" rx="1.9140000000000001" fill="#6bb3fa" opacity="1"/><rect x="-20" y="276.25399999999996" width="160" height="3.8280000000000003" rx="1.9140000000000001" fill="#f9f9f9" opacity="1"/><rect x="150" y="276.25399999999996" width="60" height="3.8280000000000003" rx="1.9140000000000001" fill="#6bb3fa" opacity="1"/><rect x="220" y="276.25399999999996" width="77" height="3.8280000000000003" rx="1.9140000000000001" fill="#6bb3fa" opacity="1"/><rect x="307" y="276.25399999999996" width="160" height="3.8280000000000003" rx="1.9140000000000001" fill="#00fae0" opacity="1"/><rect x="477" y="276.25399999999996" width="70" height="3.8280000000000003" rx="1.9140000000000001" fill="#00fae0" opacity="1"/><rect x="-20" y="281.358" width="133" height="3.8280000000000003" rx="1.9140000000000001" fill="#f9f9f9" opacity="1"/><rect x="123" y="281.358" width="162" height="3.8280000000000003" rx="1.9140000000000001" fill="#6bb3fa" opacity="1"/><rect x="295" y="281.358" width="51.04" height="3.8280000000000003" rx="1.9140000000000001" fill="#6bb3fa" opacity="1"/><rect x="356.04" y="281.358" width="122" height="3.8280000000000003" rx="1.9140000000000001" fill="#00fae0" opacity="1"/><rect x="488.04" y="281.358" width="51.04" height="3.8280000000000003" rx="1.9140000000000001" fill="#236cbe" opacity="1"/><rect x="-20" y="286.462" width="51.04" height="3.8280000000000003" rx="1.9140000000000001" fill="#236cbe" opacity="1"/><rect x="41.04" y="286.462" width="51.04" height="3.8280000000000003" rx="1.9140000000000001" fill="#00fae0" opacity="1"/><rect x="102.08" y="286.462" width="51.04" height="3.8280000000000003" rx="1.9140000000000001" fill="#00fae0" opacity="1"/><rect x="163.12" y="286.462" width="161" height="3.8280000000000003" rx="1.9140000000000001" fill="#f9f9f9" opacity="1"/><rect x="334.12" y="286.462" width="79" height="3.8280000000000003" rx="1.9140000000000001" fill="#236cbe" opacity="1"/><rect x="423.12" y="286.462" width="163" height="3.8280000000000003" rx="1.9140000000000001" fill="#6bb3fa" opacity="1"/><rect x="-20" y="291.566" width="51.04" height="3.8280000000000003" rx="1.9140000000000001" fill="#236cbe" opacity="1"/><rect x="41.04" y="291.566" width="51.04" height="3.8280000000000003" rx="1.9140000000000001" fill="#6bb3fa" opacity="1"/><rect x="102.08" y="291.566" width="51.04" height="3.8280000000000003" rx="1.9140000000000001" fill="#6bb3fa" opacity="1"/><rect x="163.12" y="291.566" width="115" height="3.8280000000000003" rx="1.9140000000000001" fill="#00fae0" opacity="1"/><rect x="288.12" y="291.566" width="116" height="3.8280000000000003" rx="1.9140000000000001" fill="#236cbe" opacity="1"/><rect x="414.12" y="291.566" width="107" height="3.8280000000000003" rx="1.9140000000000001" fill="#f9f9f9" opacity="1"/><rect x="-20" y="296.66999999999996" width="147" height="3.8280000000000003" rx="1.9140000000000001" fill="#05f5e3" opacity="1"/><rect x="137" y="296.66999999999996" width="86" height="3.8280000000000003" rx="1.9140000000000001" fill="#05f5e3" opacity="1"/><rect x="233" y="296.66999999999996" width="147" height="3.8280000000000003" rx="1.9140000000000001" fill="#236cbe" opacity="1"/><rect x="390" y="296.66999999999996" width="131" height="3.8280000000000003" rx="1.9140000000000001" fill="#00fae0" opacity="1"/><rect x="-20" y="301.774" width="165" height="3.8280000000000003" rx="1.9140000000000001" fill="#00fae0" opacity="1"/><rect x="155" y="301.774" width="51.04" height="3.8280000000000003" rx="1.9140000000000001" fill="#f9f9f9" opacity="1"/><rect x="216.04" y="301.774" width="101" height="3.8280000000000003" rx="1.9140000000000001" fill="#236cbe" opacity="1"/><rect x="327.03999999999996" y="301.774" width="139" height="3.8280000000000003" rx="1.9140000000000001" fill="#236cbe" opacity="1"/><rect x="476.03999999999996" y="301.774" width="115" height="3.8280000000000003" rx="1.9140000000000001" fill="#f9f9f9" opacity="1"/><rect x="-20" y="306.878" width="51.04" height="3.8280000000000003" rx="1.9140000000000001" fill="#00fae0" opacity="1"/><rect x="41.04" y="306.878" width="51.04" height="3.8280000000000003" rx="1.9140000000000001" fill="#05f5e3" opacity="1"/><rect x="102.08" y="306.878" width="75" height="3.8280000000000003" rx="1.9140000000000001" fill="#f9f9f9" opacity="1"/><rect x="187.07999999999998" y="306.878" width="98" height="3.8280000000000003" rx="1.9140000000000001" fill="#f9f9f9" opacity="1"/><rect x="295.08" y="306.878" width="103" height="3.8280000000000003" rx="1.9140000000000001" fill="#00fae0" opacity="1"/><rect x="408.08" y="306.878" width="55" height="3.8280000000000003" rx="1.9140000000000001" fill="#236cbe" opacity="1"/><rect x="473.08" y="306.878" width="155" height="3.8280000000000003" rx="1.9140000000000001" fill="#6bb3fa" opacity="1"/><rect x="-20" y="311.98199999999997" width="103" height="3.8280000000000003" rx="1.9140000000000001" fill="#236cbe" opacity="1"/><rect x="93" y="311.98199999999997" width="164" height="3.8280000000000003" rx="1.9140000000000001" fill="#236cbe" opacity="1"/><rect x="267" y="311.98199999999997" width="75" height="3.8280000000000003" rx="1.9140000000000001" fill="#00fae0" opacity="1"/><rect x="352" y="311.98199999999997" width="51.04" height="3.8280000000000003" rx="1.9140000000000001" fill="#00fae0" opacity="1"/><rect x="413.04" y="311.98199999999997" width="51.04" height="3.8280000000000003" rx="1.9140000000000001" fill="#00fae0" opacity="1"/><rect x="474.08000000000004" y="311.98199999999997" width="78" height="3.8280000000000003" rx="1.9140000000000001" fill="#05f5e3" opacity="1"/><rect x="-20" y="317.08599999999996" width="51.04" height="3.8280000000000003" rx="1.9140000000000001" fill="#00fae0" opacity="1"/><rect x="41.04" y="317.08599999999996" width="51.04" height="3.8280000000000003" rx="1.9140000000000001" fill="#236cbe" opacity="1"/><rect x="102.08" y="317.08599999999996" width="160" height="3.8280000000000003" rx="1.9140000000000001" fill="#6bb3fa" opacity="1"/><rect x="272.08" y="317.08599999999996" width="143" height="3.8280000000000003" rx="1.9140000000000001" fill="#236cbe" opacity="1"/><rect x="425.08" y="317.08599999999996" width="51.04" height="3.8280000000000003" rx="1.9140000000000001" fill="#236cbe" opacity="1"/><rect x="486.12" y="317.08599999999996" width="51.04" height="3.8280000000000003" rx="1.9140000000000001" fill="#236cbe" opacity="1"/><rect x="-20" y="322.19" width="167" height="3.8280000000000003" rx="1.9140000000000001" fill="#236cbe" opacity="1"/><rect x="157" y="322.19" width="113" height="3.8280000000000003" rx="1.9140000000000001" fill="#00fae0" opacity="1"/><rect x="280" y="322.19" width="51.04" height="3.8280000000000003" rx="1.9140000000000001" fill="#6bb3fa" opacity="1"/><rect x="341.04" y="322.19" width="136" height="3.8280000000000003" rx="1.9140000000000001" fill="#6bb3fa" opacity="1"/><rect x="487.04" y="322.19" width="161" height="3.8280000000000003" rx="1.9140000000000001" fill="#236cbe" opacity="1"/><rect x="-20" y="327.294" width="100" height="3.8280000000000003" rx="1.9140000000000001" fill="#236cbe" opacity="1"/><rect x="90" y="327.294" width="109" height="3.8280000000000003" rx="1.9140000000000001" fill="#00fae0" opacity="1"/><rect x="209" y="327.294" width="51.04" height="3.8280000000000003" rx="1.9140000000000001" fill="#236cbe" opacity="1"/><rect x="270.04" y="327.294" width="125" height="3.8280000000000003" rx="1.9140000000000001" fill="#f9f9f9" opacity="1"/><rect x="405.04" y="327.294" width="75" height="3.8280000000000003" rx="1.9140000000000001" fill="#05f5e3" opacity="1"/><rect x="490.04" y="327.294" width="79" height="3.8280000000000003" rx="1.9140000000000001" fill="#6bb3fa" opacity="1"/><rect x="-20" y="332.39799999999997" width="69" height="3.8280000000000003" rx="1.9140000000000001" fill="#00fae0" opacity="1"/><rect x="59" y="332.39799999999997" width="69" height="3.8280000000000003" rx="1.9140000000000001" fill="#05f5e3" opacity="1"/><rect x="138" y="332.39799999999997" width="51.04" height="3.8280000000000003" rx="1.9140000000000001" fill="#6bb3fa" opacity="1"/><rect x="199.04" y="332.39799999999997" width="87" height="3.8280000000000003" rx="1.9140000000000001" fill="#6bb3fa" opacity="1"/><rect x="296.03999999999996" y="332.39799999999997" width="116" height="3.8280000000000003" rx="1.9140000000000001" fill="#f9f9f9" opacity="1"/><rect x="422.03999999999996" y="332.39799999999997" width="51.04" height="3.8280000000000003" rx="1.9140000000000001" fill="#00fae0" opacity="1"/><rect x="483.08" y="332.39799999999997" width="117" height="3.8280000000000003" rx="1.9140000000000001" fill="#236cbe" opacity="1"/><rect x="-20" y="337.502" width="57" height="3.8280000000000003" rx="1.9140000000000001" fill="#05f5e3" opacity="1"/><rect x="47" y="337.502" width="88" height="3.8280000000000003" rx="1.9140000000000001" fill="#00fae0" opacity="1"/><rect x="145" y="337.502" width="134" height="3.8280000000000003" rx="1.9140000000000001" fill="#6bb3fa" opacity="1"/><rect x="289" y="337.502" width="51.04" height="3.8280000000000003" rx="1.9140000000000001" fill="#00fae0" opacity="1"/><rect x="350.04" y="337.502" width="135" height="3.8280000000000003" rx="1.9140000000000001" fill="#f9f9f9" opacity="1"/><rect x="495.04" y="337.502" width="113" height="3.8280000000000003" rx="1.9140000000000001" fill="#00fae0" opacity="1"/><rect x="-20" y="342.606" width="51.04" height="3.8280000000000003" rx="1.9140000000000001" fill="#05f5e3" opacity="1"/><rect x="41.04" y="342.606" width="163" height="3.8280000000000003" rx="1.9140000000000001" fill="#6bb3fa" opacity="1"/><rect x="214.04" y="342.606" width="157" height="3.8280000000000003" rx="1.9140000000000001" fill="#f9f9f9" opacity="1"/><rect x="381.03999999999996" y="342.606" width="123" height="3.8280000000000003" rx="1.9140000000000001" fill="#236cbe" opacity="1"/><rect x="514.04" y="342.606" width="51.04" height="3.8280000000000003" rx="1.9140000000000001" fill="#f9f9f9" opacity="1"/><rect x="-20" y="347.71" width="149" height="3.8280000000000003" rx="1.9140000000000001" fill="#236cbe" opacity="1"/><rect x="139" y="347.71" width="65" height="3.8280000000000003" rx="1.9140000000000001" fill="#05f5e3" opacity="1"/><rect x="214" y="347.71" width="84" height="3.8280000000000003" rx="1.9140000000000001" fill="#6bb3fa" opacity="1"/><rect x="308" y="347.71" width="136" height="3.8280000000000003" rx="1.9140000000000001" fill="#6bb3fa" opacity="1"/><rect x="454" y="347.71" width="90" height="3.8280000000000003" rx="1.9140000000000001" fill="#236cbe" opacity="1"/><rect x="-20" y="352.81399999999996" width="74" height="3.8280000000000003" rx="1.9140000000000001" fill="#6bb3fa" opacity="1"/><rect x="64" y="352.81399999999996" width="51.04" height="3.8280000000000003" rx="1.9140000000000001" fill="#05f5e3" opacity="1"/><rect x="125.03999999999999" y="352.81399999999996" width="59" height="3.8280000000000003" rx="1.9140000000000001" fill="#f9f9f9" opacity="1"/><rect x="194.04" y="352.81399999999996" width="51.04" height="3.8280000000000003" rx="1.9140000000000001" fill="#236cbe" opacity="1"/><rect x="255.07999999999998" y="352.81399999999996" width="116" height="3.8280000000000003" rx="1.9140000000000001" fill="#f9f9f9" opacity="1"/><rect x="381.08" y="352.81399999999996" width="70" height="3.8280000000000003" rx="1.9140000000000001" fill="#f9f9f9" opacity="1"/><rect x="461.08" y="352.81399999999996" width="51.04" height="3.8280000000000003" rx="1.9140000000000001" fill="#f9f9f9" opacity="1"/><rect x="-20" y="357.918" width="160" height="3.8280000000000003" rx="1.9140000000000001" fill="#f9f9f9" opacity="1"/><rect x="150" y="357.918" width="91" height="3.8280000000000003" rx="1.9140000000000001" fill="#f9f9f9" opacity="1"/><rect x="251" y="357.918" width="72" height="3.8280000000000003" rx="1.9140000000000001" fill="#05f5e3" opacity="1"/><rect x="333" y="357.918" width="69" height="3.8280000000000003" rx="1.9140000000000001" fill="#00fae0" opacity="1"/><rect x="412" y="357.918" width="103" height="3.8280000000000003" rx="1.9140000000000001" fill="#05f5e3" opacity="1"/><rect x="-20" y="363.022" width="51.04" height="3.8280000000000003" rx="1.9140000000000001" fill="#6bb3fa" opacity="1"/><rect x="41.04" y="363.022" width="51.04" height="3.8280000000000003" rx="1.9140000000000001" fill="#236cbe" opacity="1"/><rect x="102.08" y="363.022" width="51.04" height="3.8280000000000003" rx="1.9140000000000001" fill="#236cbe" opacity="1"/><rect x="163.12" y="363.022" width="51.04" height="3.8280000000000003" rx="1.9140000000000001" fill="#05f5e3" opacity="1"/><rect x="224.16" y="363.022" width="51.04" height="3.8280000000000003" rx="1.9140000000000001" fill="#236cbe" opacity="1"/><rect x="285.2" y="363.022" width="71" height="3.8280000000000003" rx="1.9140000000000001" fill="#6bb3fa" opacity="1"/><rect x="366.2" y="363.022" width="142" height="3.8280000000000003" rx="1.9140000000000001" fill="#00fae0" opacity="1"/><rect x="518.2" y="363.022" width="68" height="3.8280000000000003" rx="1.9140000000000001" fill="#6bb3fa" opacity="1"/><rect x="-20" y="368.126" width="74" height="3.8280000000000003" rx="1.9140000000000001" fill="#236cbe" opacity="1"/><rect x="64" y="368.126" width="51.04" height="3.8280000000000003" rx="1.9140000000000001" fill="#05f5e3" opacity="1"/><rect x="125.03999999999999" y="368.126" width="51.04" height="3.8280000000000003" rx="1.9140000000000001" fill="#6bb3fa" opacity="1"/><rect x="186.07999999999998" y="368.126" width="51.04" height="3.8280000000000003" rx="1.9140000000000001" fill="#00fae0" opacity="1"/><rect x="247.11999999999998" y="368.126" width="165" height="3.8280000000000003" rx="1.9140000000000001" fill="#6bb3fa" opacity="1"/><rect x="422.12" y="368.126" width="51.04" height="3.8280000000000003" rx="1.9140000000000001" fill="#236cbe" opacity="1"/><rect x="483.16" y="368.126" width="133" height="3.8280000000000003" rx="1.9140000000000001" fill="#00fae0" opacity="1"/><rect x="-20" y="373.22999999999996" width="71" height="3.8280000000000003" rx="1.9140000000000001" fill="#f9f9f9" opacity="1"/><rect x="61" y="373.22999999999996" width="142" height="3.8280000000000003" rx="1.9140000000000001" fill="#f9f9f9" opacity="1"/><rect x="213" y="373.22999999999996" width="106" height="3.8280000000000003" rx="1.9140000000000001" fill="#236cbe" opacity="1"/><rect x="329" y="373.22999999999996" width="156" height="3.8280000000000003" rx="1.9140000000000001" fill="#f9f9f9" opacity="1"/><rect x="495" y="373.22999999999996" width="169" height="3.8280000000000003" rx="1.9140000000000001" fill="#6bb3fa" opacity="1"/><rect x="-20" y="378.334" width="51.04" height="3.8280000000000003" rx="1.9140000000000001" fill="#236cbe" opacity="1"/><rect x="41.04" y="378.334" width="101" height="3.8280000000000003" rx="1.9140000000000001" fill="#f9f9f9" opacity="1"/><rect x="152.04" y="378.334" width="151" height="3.8280000000000003" rx="1.9140000000000001" fill="#00fae0" opacity="1"/><rect x="313.03999999999996" y="378.334" width="142" height="3.8280000000000003" rx="1.9140000000000001" fill="#00fae0" opacity="1"/><rect x="465.03999999999996" y="378.334" width="51.04" height="3.8280000000000003" rx="1.9140000000000001" fill="#236cbe" opacity="1"/><rect x="-20" y="383.438" width="134" height="3.8280000000000003" rx="1.9140000000000001" fill="#05f5e3" opacity="1"/><rect x="124" y="383.438" width="94" height="3.8280000000000003" rx="1.9140000000000001" fill="#6bb3fa" opacity="1"/><rect x="228" y="383.438" width="82" height="3.8280000000000003" rx="1.9140000000000001" fill="#00fae0" opacity="1"/><rect x="320" y="383.438" width="125" height="3.8280000000000003" rx="1.9140000000000001" fill="#f9f9f9" opacity="1"/><rect x="455" y="383.438" width="161" height="3.8280000000000003" rx="1.9140000000000001" fill="#00fae0" opacity="1"/><rect x="-20" y="388.542" width="156" height="3.8280000000000003" rx="1.9140000000000001" fill="#05f5e3" opacity="1"/><rect x="146" y="388.542" width="148" height="3.8280000000000003" rx="1.9140000000000001" fill="#05f5e3" opacity="1"/><rect x="304" y="388.542" width="166" height="3.8280000000000003" rx="1.9140000000000001" fill="#236cbe" opacity="1"/><rect x="480" y="388.542" width="51.04" height="3.8280000000000003" rx="1.9140000000000001" fill="#00fae0" opacity="1"/><rect x="-20" y="393.64599999999996" width="121" height="3.8280000000000003" rx="1.9140000000000001" fill="#f9f9f9" opacity="1"/><rect x="111" y="393.64599999999996" width="116" height="3.8280000000000003" rx="1.9140000000000001" fill="#00fae0" opacity="1"/><rect x="237" y="393.64599999999996" width="51.04" height="3.8280000000000003" rx="1.9140000000000001" fill="#05f5e3" opacity="1"/><rect x="298.04" y="393.64599999999996" width="51.04" height="3.8280000000000003" rx="1.9140000000000001" fill="#f9f9f9" opacity="1"/><rect x="359.08000000000004" y="393.64599999999996" width="51.04" height="3.8280000000000003" rx="1.9140000000000001" fill="#236cbe" opacity="1"/><rect x="420.12000000000006" y="393.64599999999996" width="151" height="3.8280000000000003" rx="1.9140000000000001" fill="#05f5e3" opacity="1"/><rect x="-20" y="398.75" width="51.04" height="3.8280000000000003" rx="1.9140000000000001" fill="#6bb3fa" opacity="1"/><rect x="41.04" y="398.75" width="87" height="3.8280000000000003" rx="1.9140000000000001" fill="#00fae0" opacity="1"/><rect x="138.04" y="398.75" width="121" height="3.8280000000000003" rx="1.9140000000000001" fill="#f9f9f9" opacity="1"/><rect x="269.03999999999996" y="398.75" width="164" height="3.8280000000000003" rx="1.9140000000000001" fill="#00fae0" opacity="1"/><rect x="443.03999999999996" y="398.75" width="121" height="3.8280000000000003" rx="1.9140000000000001" fill="#6bb3fa" opacity="1"/><rect x="-20" y="403.854" width="51.04" height="3.8280000000000003" rx="1.9140000000000001" fill="#6bb3fa" opacity="1"/><rect x="41.04" y="403.854" width="123" height="3.8280000000000003" rx="1.9140000000000001" fill="#00fae0" opacity="1"/><rect x="174.04" y="403.854" width="51.04" height="3.8280000000000003" rx="1.9140000000000001" fill="#f9f9f9" opacity="1"/><rect x="235.07999999999998" y="403.854" width="51.04" height="3.8280000000000003" rx="1.9140000000000001" fill="#00fae0" opacity="1"/><rect x="296.12" y="403.854" width="51.04" height="3.8280000000000003" rx="1.9140000000000001" fill="#6bb3fa" opacity="1"/><rect x="357.16" y="403.854" width="51.04" height="3.8280000000000003" rx="1.9140000000000001" fill="#00fae0" opacity="1"/><rect x="418.20000000000005" y="403.854" width="137" height="3.8280000000000003" rx="1.9140000000000001" fill="#05f5e3" opacity="1"/><rect x="-20" y="408.95799999999997" width="59" height="3.8280000000000003" rx="1.9140000000000001" fill="#f9f9f9" opacity="1"/><rect x="49" y="408.95799999999997" width="74" height="3.8280000000000003" rx="1.9140000000000001" fill="#6bb3fa" opacity="1"/><rect x="133" y="408.95799999999997" width="51.04" height="3.8280000000000003" rx="1.9140000000000001" fill="#236cbe" opacity="1"/><rect x="194.04" y="408.95799999999997" width="117" height="3.8280000000000003" rx="1.9140000000000001" fill="#00fae0" opacity="1"/><rect x="321.03999999999996" y="408.95799999999997" width="51.04" height="3.8280000000000003" rx="1.9140000000000001" fill="#f9f9f9" opacity="1"/><rect x="382.08" y="408.95799999999997" width="73" height="3.8280000000000003" rx="1.9140000000000001" fill="#6bb3fa" opacity="1"/><rect x="465.08" y="408.95799999999997" width="86" height="3.8280000000000003" rx="1.9140000000000001" fill="#6bb3fa" opacity="1"/><rect x="-20" y="414.062" width="163" height="3.8280000000000003" rx="1.9140000000000001" fill="#f9f9f9" opacity="1"/><rect x="153" y="414.062" width="123" height="3.8280000000000003" rx="1.9140000000000001" fill="#f9f9f9" opacity="1"/><rect x="286" y="414.062" width="51.04" height="3.8280000000000003" rx="1.9140000000000001" fill="#f9f9f9" opacity="1"/><rect x="347.04" y="414.062" width="79" height="3.8280000000000003" rx="1.9140000000000001" fill="#6bb3fa" opacity="1"/><rect x="436.04" y="414.062" width="51.04" height="3.8280000000000003" rx="1.9140000000000001" fill="#00fae0" opacity="1"/><rect x="497.08000000000004" y="414.062" width="51.04" height="3.8280000000000003" rx="1.9140000000000001" fill="#00fae0" opacity="1"/><rect x="-20" y="419.166" width="81" height="3.8280000000000003" rx="1.9140000000000001" fill="#6bb3fa" opacity="1"/><rect x="71" y="419.166" width="127" height="3.8280000000000003" rx="1.9140000000000001" fill="#00fae0" opacity="1"/><rect x="208" y="419.166" width="59" height="3.8280000000000003" rx="1.9140000000000001" fill="#236cbe" opacity="1"/><rect x="277" y="419.166" width="123" height="3.8280000000000003" rx="1.9140000000000001" fill="#6bb3fa" opacity="1"/><rect x="410" y="419.166" width="51.04" height="3.8280000000000003" rx="1.9140000000000001" fill="#05f5e3" opacity="1"/><rect x="471.04" y="419.166" width="51.04" height="3.8280000000000003" rx="1.9140000000000001" fill="#6bb3fa" opacity="1"/><rect x="-20" y="424.27" width="168" height="3.8280000000000003" rx="1.9140000000000001" fill="#00fae0" opacity="1"/><rect x="158" y="424.27" width="84" height="3.8280000000000003" rx="1.9140000000000001" fill="#00fae0" opacity="1"/><rect x="252" y="424.27" width="125" height="3.8280000000000003" rx="1.9140000000000001" fill="#236cbe" opacity="1"/><rect x="387" y="424.27" width="96" height="3.8280000000000003" rx="1.9140000000000001" fill="#f9f9f9" opacity="1"/><rect x="493" y="424.27" width="51.04" height="3.8280000000000003" rx="1.9140000000000001" fill="#f9f9f9" opacity="1"/><rect x="-20" y="429.37399999999997" width="114" height="3.8280000000000003" rx="1.9140000000000001" fill="#f9f9f9" opacity="1"/><rect x="104" y="429.37399999999997" width="167" height="3.8280000000000003" rx="1.9140000000000001" fill="#05f5e3" opacity="1"/><rect x="281" y="429.37399999999997" width="93" height="3.8280000000000003" rx="1.9140000000000001" fill="#05f5e3" opacity="1"/><rect x="384" y="429.37399999999997" width="51.04" height="3.8280000000000003" rx="1.9140000000000001" fill="#f9f9f9" opacity="1"/><rect x="445.04" y="429.37399999999997" width="143" height="3.8280000000000003" rx="1.9140000000000001" fill="#6bb3fa" opacity="1"/><rect x="-20" y="434.478" width="51.04" height="3.8280000000000003" rx="1.9140000000000001" fill="#00fae0" opacity="1"/><rect x="41.04" y="434.478" width="51.04" height="3.8280000000000003" rx="1.9140000000000001" fill="#05f5e3" opacity="1"/><rect x="102.08" y="434.478" width="51.04" height="3.8280000000000003" rx="1.9140000000000001" fill="#05f5e3" opacity="1"/><rect x="163.12" y="434.478" width="51.04" height="3.8280000000000003" rx="1.9140000000000001" fill="#05f5e3" opacity="1"/><rect x="224.16" y="434.478" width="51.04" height="3.8280000000000003" rx="1.9140000000000001" fill="#f9f9f9" opacity="1"/><rect x="285.2" y="434.478" width="51.04" height="3.8280000000000003" rx="1.9140000000000001" fill="#00fae0" opacity="1"/><rect x="346.24" y="434.478" width="51.04" height="3.8280000000000003" rx="1.9140000000000001" fill="#05f5e3" opacity="1"/><rect x="407.28000000000003" y="434.478" width="161" height="3.8280000000000003" rx="1.9140000000000001" fill="#05f5e3" opacity="1"/><rect x="-20" y="439.582" width="51.04" height="3.8280000000000003" rx="1.9140000000000001" fill="#f9f9f9" opacity="1"/><rect x="41.04" y="439.582" width="51.04" height="3.8280000000000003" rx="1.9140000000000001" fill="#00fae0" opacity="1"/><rect x="102.08" y="439.582" width="134" height="3.8280000000000003" rx="1.9140000000000001" fill="#236cbe" opacity="1"/><rect x="246.07999999999998" y="439.582" width="145" height="3.8280000000000003" rx="1.9140000000000001" fill="#f9f9f9" opacity="1"/><rect x="401.08" y="439.582" width="51.04" height="3.8280000000000003" rx="1.9140000000000001" fill="#f9f9f9" opacity="1"/><rect x="462.12" y="439.582" width="51.04" height="3.8280000000000003" rx="1.9140000000000001" fill="#f9f9f9" opacity="1"/><rect x="-20" y="444.686" width="51.04" height="3.8280000000000003" rx="1.9140000000000001" fill="#6bb3fa" opacity="1"/><rect x="41.04" y="444.686" width="65" height="3.8280000000000003" rx="1.9140000000000001" fill="#f9f9f9" opacity="1"/><rect x="116.03999999999999" y="444.686" width="169" height="3.8280000000000003" rx="1.9140000000000001" fill="#05f5e3" opacity="1"/><rect x="295.03999999999996" y="444.686" width="94" height="3.8280000000000003" rx="1.9140000000000001" fill="#05f5e3" opacity="1"/><rect x="399.03999999999996" y="444.686" width="51.04" height="3.8280000000000003" rx="1.9140000000000001" fill="#00fae0" opacity="1"/><rect x="460.08" y="444.686" width="69" height="3.8280000000000003" rx="1.9140000000000001" fill="#f9f9f9" opacity="1"/><rect x="-20" y="449.78999999999996" width="141" height="3.8280000000000003" rx="1.9140000000000001" fill="#05f5e3" opacity="1"/><rect x="131" y="449.78999999999996" width="51.04" height="3.8280000000000003" rx="1.9140000000000001" fill="#05f5e3" opacity="1"/><rect x="192.04" y="449.78999999999996" width="51.04" height="3.8280000000000003" rx="1.9140000000000001" fill="#00fae0" opacity="1"/><rect x="253.07999999999998" y="449.78999999999996" width="130" height="3.8280000000000003" rx="1.9140000000000001" fill="#6bb3fa" opacity="1"/><rect x="393.08" y="449.78999999999996" width="83" height="3.8280000000000003" rx="1.9140000000000001" fill="#00fae0" opacity="1"/><rect x="486.08" y="449.78999999999996" width="51.04" height="3.8280000000000003" rx="1.9140000000000001" fill="#f9f9f9" opacity="1"/><rect x="-20" y="454.894" width="63" height="3.8280000000000003" rx="1.9140000000000001" fill="#f9f9f9" opacity="1"/><rect x="53" y="454.894" width="51.04" height="3.8280000000000003" rx="1.9140000000000001" fill="#236cbe" opacity="1"/><rect x="114.03999999999999" y="454.894" width="51.04" height="3.8280000000000003" rx="1.9140000000000001" fill="#f9f9f9" opacity="1"/><rect x="175.07999999999998" y="454.894" width="121" height="3.8280000000000003" rx="1.9140000000000001" fill="#05f5e3" opacity="1"/><rect x="306.08" y="454.894" width="144" height="3.8280000000000003" rx="1.9140000000000001" fill="#00fae0" opacity="1"/><rect x="460.08" y="454.894" width="69" height="3.8280000000000003" rx="1.9140000000000001" fill="#f9f9f9" opacity="1"/><rect x="-20" y="459.998" width="86" height="3.8280000000000003" rx="1.9140000000000001" fill="#236cbe" opacity="1"/><rect x="76" y="459.998" width="67" height="3.8280000000000003" rx="1.9140000000000001" fill="#f9f9f9" opacity="1"/><rect x="153" y="459.998" width="51.04" height="3.8280000000000003" rx="1.9140000000000001" fill="#05f5e3" opacity="1"/><rect x="214.04" y="459.998" width="143" height="3.8280000000000003" rx="1.9140000000000001" fill="#05f5e3" opacity="1"/><rect x="367.03999999999996" y="459.998" width="122" height="3.8280000000000003" rx="1.9140000000000001" fill="#05f5e3" opacity="1"/><rect x="499.03999999999996" y="459.998" width="120" height="3.8280000000000003" rx="1.9140000000000001" fill="#f9f9f9" opacity="1"/><rect x="-20" y="465.102" width="51.04" height="3.8280000000000003" rx="1.9140000000000001" fill="#00fae0" opacity="1"/><rect x="41.04" y="465.102" width="51.04" height="3.8280000000000003" rx="1.9140000000000001" fill="#f9f9f9" opacity="1"/><rect x="102.08" y="465.102" width="51.04" height="3.8280000000000003" rx="1.9140000000000001" fill="#05f5e3" opacity="1"/><rect x="163.12" y="465.102" width="62" height="3.8280000000000003" rx="1.9140000000000001" fill="#6bb3fa" opacity="1"/><rect x="235.12" y="465.102" width="51.04" height="3.8280000000000003" rx="1.9140000000000001" fill="#6bb3fa" opacity="1"/><rect x="296.16" y="465.102" width="132" height="3.8280000000000003" rx="1.9140000000000001" fill="#00fae0" opacity="1"/><rect x="438.16" y="465.102" width="63" height="3.8280000000000003" rx="1.9140000000000001" fill="#05f5e3" opacity="1"/><rect x="511.16" y="465.102" width="51.04" height="3.8280000000000003" rx="1.9140000000000001" fill="#05f5e3" opacity="1"/><rect x="-20" y="470.20599999999996" width="120" height="3.8280000000000003" rx="1.9140000000000001" fill="#6bb3fa" opacity="1"/><rect x="110" y="470.20599999999996" width="142" height="3.8280000000000003" rx="1.9140000000000001" fill="#f9f9f9" opacity="1"/><rect x="262" y="470.20599999999996" width="156" height="3.8280000000000003" rx="1.9140000000000001" fill="#6bb3fa" opacity="1"/><rect x="428" y="470.20599999999996" width="147" height="3.8280000000000003" rx="1.9140000000000001" fill="#05f5e3" opacity="1"/><rect x="-20" y="475.31" width="89" height="3.8280000000000003" rx="1.9140000000000001" fill="#6bb3fa" opacity="1"/><rect x="79" y="475.31" width="51.04" height="3.8280000000000003" rx="1.9140000000000001" fill="#00fae0" opacity="1"/><rect x="140.04" y="475.31" width="67" height="3.8280000000000003" rx="1.9140000000000001" fill="#236cbe" opacity="1"/><rect x="217.04" y="475.31" width="84" height="3.8280000000000003" rx="1.9140000000000001" fill="#00fae0" opacity="1"/><rect x="311.03999999999996" y="475.31" width="79" height="3.8280000000000003" rx="1.9140000000000001" fill="#05f5e3" opacity="1"/><rect x="400.03999999999996" y="475.31" width="51.04" height="3.8280000000000003" rx="1.9140000000000001" fill="#05f5e3" opacity="1"/><rect x="461.08" y="475.31" width="70" height="3.8280000000000003" rx="1.9140000000000001" fill="#f9f9f9" opacity="1"/><rect x="-20" y="480.414" width="111" height="3.8280000000000003" rx="1.9140000000000001" fill="#236cbe" opacity="1"/><rect x="101" y="480.414" width="121" height="3.8280000000000003" rx="1.9140000000000001" fill="#6bb3fa" opacity="1"/><rect x="232" y="480.414" width="51.04" height="3.8280000000000003" rx="1.9140000000000001" fill="#00fae0" opacity="1"/><rect x="293.04" y="480.414" width="131" height="3.8280000000000003" rx="1.9140000000000001" fill="#6bb3fa" opacity="1"/><rect x="434.04" y="480.414" width="138" height="3.8280000000000003" rx="1.9140000000000001" fill="#05f5e3" opacity="1"/><rect x="-20" y="485.518" width="95" height="3.8280000000000003" rx="1.9140000000000001" fill="#05f5e3" opacity="1"/><rect x="85" y="485.518" width="51.04" height="3.8280000000000003" rx="1.9140000000000001" fill="#6bb3fa" opacity="1"/><rect x="146.04" y="485.518" width="66" height="3.8280000000000003" rx="1.9140000000000001" fill="#6bb3fa" opacity="1"/><rect x="222.04" y="485.518" width="78" height="3.8280000000000003" rx="1.9140000000000001" fill="#236cbe" opacity="1"/><rect x="310.03999999999996" y="485.518" width="139" height="3.8280000000000003" rx="1.9140000000000001" fill="#236cbe" opacity="1"/><rect x="459.03999999999996" y="485.518" width="148" height="3.8280000000000003" rx="1.9140000000000001" fill="#236cbe" opacity="1"/><rect x="-20" y="490.622" width="116" height="3.8280000000000003" rx="1.9140000000000001" fill="#6bb3fa" opacity="1"/><rect x="106" y="490.622" width="87" height="3.8280000000000003" rx="1.9140000000000001" fill="#f9f9f9" opacity="1"/><rect x="203" y="490.622" width="78" height="3.8280000000000003" rx="1.9140000000000001" fill="#00fae0" opacity="1"/><rect x="291" y="490.622" width="144" height="3.8280000000000003" rx="1.9140000000000001" fill="#05f5e3" opacity="1"/><rect x="445" y="490.622" width="101" height="3.8280000000000003" rx="1.9140000000000001" fill="#236cbe" opacity="1"/><rect x="-20" y="495.726" width="61" height="3.8280000000000003" rx="1.9140000000000001" fill="#f9f9f9" opacity="1"/><rect x="51" y="495.726" width="51.04" height="3.8280000000000003" rx="1.9140000000000001" fill="#236cbe" opacity="1"/><rect x="112.03999999999999" y="495.726" width="51.04" height="3.8280000000000003" rx="1.9140000000000001" fill="#00fae0" opacity="1"/><rect x="173.07999999999998" y="495.726" width="51.04" height="3.8280000000000003" rx="1.9140000000000001" fill="#6bb3fa" opacity="1"/><rect x="234.11999999999998" y="495.726" width="157" height="3.8280000000000003" rx="1.9140000000000001" fill="#00fae0" opacity="1"/><rect x="401.12" y="495.726" width="167" height="3.8280000000000003" rx="1.9140000000000001" fill="#05f5e3" opacity="1"/><rect x="-20" y="500.83" width="104" height="3.8280000000000003" rx="1.9140000000000001" fill="#6bb3fa" opacity="1"/><rect x="94" y="500.83" width="89" height="3.8280000000000003" rx="1.9140000000000001" fill="#f9f9f9" opacity="1"/><rect x="193" y="500.83" width="142" height="3.8280000000000003" rx="1.9140000000000001" fill="#f9f9f9" opacity="1"/><rect x="345" y="500.83" width="156" height="3.8280000000000003" rx="1.9140000000000001" fill="#f9f9f9" opacity="1"/><rect x="511" y="500.83" width="169" height="3.8280000000000003" rx="1.9140000000000001" fill="#00fae0" opacity="1"/><rect x="-20" y="505.93399999999997" width="51.04" height="3.8280000000000003" rx="1.9140000000000001" fill="#6bb3fa" opacity="1"/><rect x="41.04" y="505.93399999999997" width="54" height="3.8280000000000003" rx="1.9140000000000001" fill="#6bb3fa" opacity="1"/><rect x="105.03999999999999" y="505.93399999999997" width="144" height="3.8280000000000003" rx="1.9140000000000001" fill="#05f5e3" opacity="1"/><rect x="259.03999999999996" y="505.93399999999997" width="60" height="3.8280000000000003" rx="1.9140000000000001" fill="#6bb3fa" opacity="1"/><rect x="329.03999999999996" y="505.93399999999997" width="65" height="3.8280000000000003" rx="1.9140000000000001" fill="#6bb3fa" opacity="1"/><rect x="404.03999999999996" y="505.93399999999997" width="51.04" height="3.8280000000000003" rx="1.9140000000000001" fill="#00fae0" opacity="1"/><rect x="465.08" y="505.93399999999997" width="64" height="3.8280000000000003" rx="1.9140000000000001" fill="#f9f9f9" opacity="1"/></svg>